<svg width="32" height="33" viewBox="0 0 32 33" fill="none" xmlns="http://www.w3.org/2000/svg">
<g clip-path="url(#clip0)">
<path d="M13.5639 27.1514C13.4018 27.1514 13.2431 27.2172 13.1287 27.3317C13.0142 27.4461 12.9484 27.6051 12.9484 27.7669C12.9484 27.9287 13.0142 28.0876 13.1287 28.202C13.2431 28.3165 13.4018 28.3824 13.5639 28.3824C13.7257 28.3824 13.8844 28.3165 13.999 28.202C14.1135 28.0876 14.1794 27.9294 14.1794 27.7669C14.1794 27.6051 14.1135 27.4461 13.999 27.3317C13.8844 27.2172 13.7257 27.1514 13.5639 27.1514Z" fill="white"/>
<path d="M25.823 16.8179L24.3886 10.3376C24.7757 10.2852 25.1171 10.0883 25.3573 9.80314C25.6408 9.98034 25.9752 10.0832 26.3335 10.0832H27.5645C27.9044 10.0832 28.18 9.80771 28.18 9.46774V7.00575C28.18 6.66579 27.9044 6.39026 27.5645 6.39026H26.3335C25.9646 6.39026 25.6208 6.49941 25.3321 6.68671C25.0503 6.36814 24.6389 6.16666 24.1811 6.16666H20.5478C19.895 6.16666 19.3363 6.57611 19.1139 7.15145H17.655C16.7726 7.15145 16.0547 7.86937 16.0547 8.75175C16.0547 9.63412 16.7726 10.352 17.655 10.352H20.8231V11.5924C20.8231 11.9324 21.0986 12.2079 21.4386 12.2079C21.7785 12.2079 22.0541 11.9324 22.0541 11.5924V10.352H23.1312L24.6762 17.3329L21.7521 22.541C21.4326 23.108 20.8301 23.4602 20.1792 23.4602H12.8796C12.574 20.8975 10.389 18.9036 7.74545 18.9036C6.57576 18.9036 5.47219 19.2847 4.554 20.0055C4.5528 20.0065 4.55159 20.0074 4.55039 20.0084C3.45716 20.8681 2.77002 22.102 2.60989 23.4602H1.34572C1.42602 19.0354 5.05048 15.4607 9.49384 15.4607H13.86C14.2046 15.4607 14.4851 15.7412 14.4851 16.086V21.6137C14.4851 21.9537 14.7607 22.2292 15.1006 22.2292H18.3758C19.7118 22.2292 20.9431 21.5026 21.5888 20.3334C21.8877 19.7925 22.0461 19.1799 22.0466 18.5622L22.0497 16.5174C22.0502 16.1774 21.7749 15.9014 21.435 15.9009C21.4347 15.9009 21.4345 15.9009 21.4343 15.9009C21.0948 15.9009 20.8192 16.1759 20.8188 16.5154L20.8156 18.5608C20.8154 18.9714 20.7101 19.3787 20.5115 19.7381C20.0821 20.5152 19.2637 20.998 18.3758 20.998H15.7161V16.0858C15.7161 15.7706 15.6368 15.4734 15.4976 15.213C16.0506 14.8935 16.4237 14.2963 16.4237 13.6132C16.4237 12.595 15.5952 11.7667 14.5772 11.7667H12.3307C12.1148 11.7667 11.9077 11.8042 11.7152 11.8725V6.47344C11.7152 5.45523 10.8866 4.62695 9.86867 4.62695H5.89799C3.01958 4.62695 0.625875 6.74032 0.185891 9.49659C0.167378 9.55526 0.15728 9.61753 0.15728 9.68221C0.15728 9.68605 0.157761 9.68966 0.157761 9.69326C0.128428 9.92888 0.113281 10.1686 0.113281 10.4117V13.6135C0.113281 14.5379 0.796339 15.3058 1.68424 15.4393L3.04723 16.8023C1.24137 18.5131 0.113281 20.9323 0.113281 23.6105V24.0757C0.113281 24.4157 0.388812 24.6912 0.728779 24.6912H4.18783C4.17989 24.7309 4.17556 24.7722 4.17556 24.8143C4.17556 25.7075 4.50615 26.5247 5.05048 27.1513H0.728779C0.388812 27.1513 0.113281 27.427 0.113281 27.7668C0.113281 28.1067 0.388812 28.3823 0.728779 28.3823H7.67428C7.69808 28.383 7.72164 28.3842 7.74545 28.3842C9.71384 28.3842 11.3153 26.7827 11.3153 24.8143C11.3153 24.7722 11.311 24.7309 11.3031 24.6912H20.1792C21.1484 24.6912 22.0541 24.2267 22.6217 23.4583H23.4012C23.2259 23.8848 23.1329 24.3445 23.1329 24.8143C23.1329 25.7075 23.4635 26.5247 24.0078 27.1513H16.0258C15.6858 27.1513 15.4103 27.427 15.4103 27.7668C15.4103 28.1067 15.6858 28.3823 16.0258 28.3823H26.6316C26.6554 28.383 26.679 28.3842 26.7028 28.3842C28.6712 28.3842 30.2726 26.7827 30.2726 24.8143C30.2726 24.3445 30.1796 23.8848 30.0043 23.4583H31.0112C31.3512 23.4583 31.6267 23.1828 31.6267 22.8428C31.6267 19.5939 29.0433 16.9369 25.823 16.8179ZM12.3307 12.998H14.5772C14.9165 12.998 15.1927 13.274 15.1927 13.6135C15.1927 13.9527 14.9165 14.229 14.5772 14.229H12.3307C11.9912 14.229 11.7152 13.9527 11.7152 13.6135C11.7152 13.274 11.9912 12.998 12.3307 12.998ZM1.34428 10.4117C1.34428 10.3737 1.3462 10.3359 1.34716 10.2979H8.08229C8.42225 10.2979 8.69779 10.0224 8.69779 9.68245C8.69779 9.34248 8.42225 9.06695 8.08229 9.06695H1.5472C2.1223 7.21036 3.85507 5.85819 5.89799 5.85819H9.86843C10.2079 5.85819 10.4839 6.1342 10.4839 6.47369V13.6135C10.4839 13.9527 10.2079 14.229 9.86843 14.229H1.96001C1.96001 14.229 1.95977 14.229 1.95953 14.229C1.62029 14.229 1.34428 13.9527 1.34428 13.6135V10.4117ZM3.44586 15.4599H4.85429C4.55857 15.6287 4.27318 15.8136 3.99861 16.0127L3.44586 15.4599ZM10.0843 24.8143C10.0843 26.096 9.04785 27.1397 7.76925 27.1525C7.76132 27.1522 7.75338 27.1513 7.74545 27.1513H7.67452C6.41756 27.1135 5.40656 26.0802 5.40656 24.8143C5.40656 24.7722 5.40223 24.7309 5.3943 24.6912H10.0966C10.0887 24.7309 10.0843 24.7722 10.0843 24.8143ZM3.85195 23.4602C4.00438 22.4824 4.51793 21.5991 5.31111 20.9761C5.31303 20.9749 5.31471 20.9732 5.31664 20.972C6.01532 20.4243 6.85514 20.1346 7.74545 20.1346C9.70927 20.1346 11.342 21.5784 11.6385 23.4602H3.85195ZM26.3335 7.62125H26.949V8.85225H26.3335C25.994 8.85225 25.718 8.57623 25.718 8.23675C25.718 7.8975 25.994 7.62125 26.3335 7.62125ZM17.2857 8.75175C17.2857 8.5481 17.4513 8.38245 17.655 8.38245H19.011V8.81522C19.011 8.92005 19.0215 9.02223 19.0415 9.12105H17.655C17.4513 9.12105 17.2857 8.95539 17.2857 8.75175ZM21.4386 9.12105H20.5478C20.3792 9.12105 20.242 8.984 20.242 8.81522V7.70348C20.242 7.53494 20.3792 7.39765 20.5478 7.39765H24.1811C24.3497 7.39765 24.487 7.53494 24.487 7.70348V8.81522C24.487 8.984 24.3497 9.12105 24.1811 9.12105H21.4386ZM29.0417 24.8143C29.0417 26.096 28.0052 27.1397 26.7266 27.1525C26.7186 27.1522 26.7107 27.1513 26.7028 27.1513H26.6318C25.3749 27.1135 24.3639 26.0802 24.3639 24.8143C24.3639 24.3253 24.5163 23.8526 24.7971 23.4583H28.6084C28.8892 23.8526 29.0417 24.3253 29.0417 24.8143ZM23.3399 22.2273L25.687 18.047C28.0838 18.091 30.0572 19.9002 30.3563 22.2273H23.3399Z" fill="white"/>
<path d="M21.4385 14.6695C21.7784 14.6695 22.054 14.3939 22.054 14.054C22.054 13.714 21.7784 13.4385 21.4385 13.4385H21.4363C21.0963 13.4385 20.8218 13.714 20.8218 14.054C20.8218 14.3939 21.0985 14.6695 21.4385 14.6695Z" fill="white"/>
</g>
<defs>
<clipPath id="clip0">
<rect width="31.5135" height="31.5135" fill="white" transform="translate(0.113281 0.6875)"/>
</clipPath>
</defs>
</svg>
