<svg width="62" height="61" viewBox="0 0 62 61" fill="none" xmlns="http://www.w3.org/2000/svg">
<g clip-path="url(#clip0)">
<path d="M31.0576 0.199219C14.3402 0.199219 0.788086 13.7513 0.788086 30.4687C0.788086 47.1861 14.3402 60.7382 31.0576 60.7382C47.7749 60.7382 61.327 47.1861 61.327 30.4687C61.3093 13.7588 47.7676 0.217081 31.0576 0.199219ZM31.0576 56.414C16.7284 56.414 5.11226 44.7979 5.11226 30.4687C5.11226 16.1395 16.7284 4.52339 31.0576 4.52339C45.3868 4.52339 57.0029 16.1395 57.0029 30.4687C56.9874 44.7916 45.3804 56.3985 31.0576 56.414Z" fill="white"/>
<path d="M31.0576 11.0098C29.8635 11.0098 28.8955 11.9778 28.8955 13.1719V28.3067H13.7608C12.5666 28.3067 11.5986 29.2747 11.5986 30.4689C11.5986 31.663 12.5666 32.6309 13.7608 32.6309H31.0576C32.2518 32.6309 33.2198 31.6629 33.2198 30.4687V13.1719C33.2198 11.9778 32.2518 11.0098 31.0576 11.0098Z" fill="white"/>
</g>
<defs>
<clipPath id="clip0">
<rect width="60.5391" height="60.5391" fill="white" transform="translate(0.788086 0.199219)"/>
</clipPath>
</defs>
</svg>
