<svg width="33" height="33" viewBox="0 0 33 33" fill="none" xmlns="http://www.w3.org/2000/svg">
<g clip-path="url(#clip0)">
<path d="M31.7899 15.6856L29.6008 14.7382L27.7419 11.1208C27.2395 10.1304 26.2203 9.51311 25.1078 9.52029H21.9067V8.61595C21.9067 6.97952 20.6005 5.64453 18.964 5.64453H3.66194C2.02551 5.64453 0.733589 6.98669 0.733589 8.61595V22.4682C0.719235 23.4659 1.51592 24.2841 2.51357 24.2984C2.52075 24.2984 2.52792 24.2984 2.54228 24.2984H2.92268C2.92268 24.3702 2.9155 24.3989 2.9155 24.442C2.90832 26.4947 4.56629 28.167 6.619 28.1742C8.67172 28.1814 10.344 26.5234 10.3512 24.4707C10.3512 24.4563 10.3512 24.4491 10.3512 24.4348C10.3512 24.3846 10.3512 24.363 10.344 24.2912H22.7106C22.7106 24.363 22.7106 24.3917 22.7106 24.4348C22.7034 26.4875 24.3614 28.1598 26.4141 28.167C28.4668 28.1742 30.1391 26.5162 30.1463 24.4635C30.1463 24.4492 30.1463 24.442 30.1463 24.4276C30.1463 24.3774 30.1463 24.3558 30.1463 24.2841H31.0722C32.0698 24.2841 32.8809 23.473 32.8809 22.4754C32.8809 22.4682 32.8809 22.461 32.8809 22.4467V17.3508C32.8952 16.6474 32.4646 15.9799 31.7899 15.6856ZM6.64054 26.7459C5.37733 26.7459 4.35814 25.7267 4.35814 24.4635C4.35814 23.2003 5.37733 22.1811 6.64054 22.1811C7.90375 22.1811 8.92293 23.2003 8.92293 24.4635C8.92293 25.7195 7.89657 26.7459 6.64054 26.7459ZM20.4713 22.8773H10.0067C9.40381 21.5639 8.08318 20.7241 6.64054 20.7313C5.19071 20.7241 3.87726 21.5567 3.27437 22.8773H2.54228C2.31978 22.8773 2.16906 22.7051 2.16906 22.4826V18.7862H20.4713V22.8773ZM20.4713 8.62313V17.3508H2.16906V8.62313C2.16906 7.78338 2.82219 7.08718 3.66194 7.08718H18.964C19.8038 7.09435 20.4784 7.78338 20.4713 8.61595V8.62313ZM21.9067 10.9629H25.1078C25.6748 10.9558 26.2059 11.2644 26.4715 11.774L27.907 14.5516H21.9067V10.9629ZM26.4356 26.7459C25.1724 26.7459 24.1532 25.7267 24.1532 24.4635C24.1532 23.2003 25.1724 22.1811 26.4356 22.1811C27.6988 22.1811 28.718 23.2003 28.718 24.4635C28.718 25.7195 27.6988 26.7459 26.4356 26.7459ZM31.4526 22.4826C31.4526 22.7051 31.3019 22.8773 31.0794 22.8773H29.8018C28.9333 21.0184 26.7227 20.2145 24.8638 21.083C24.0743 21.449 23.4355 22.0878 23.0695 22.8773H21.9067V15.9871H28.9405L31.2229 16.9919C31.3665 17.0637 31.4598 17.2216 31.4526 17.3795V22.4826Z" fill="white"/>
</g>
<defs>
<clipPath id="clip0">
<rect width="32.1478" height="32.1478" fill="white" transform="translate(0.733398 0.834961)"/>
</clipPath>
</defs>
</svg>
