<svg width="37" height="36" viewBox="0 0 37 36" fill="none" xmlns="http://www.w3.org/2000/svg">
<g clip-path="url(#clip0)">
<path d="M36.6246 24.2168C36.4841 23.5008 35.2434 17.195 34.9369 16.2743C34.2 14.0609 32.4295 11.541 30.2011 9.53379C27.8841 7.44691 25.4835 6.25 23.6147 6.25H5.43641C4.49432 6.25 3.72783 7.01649 3.72783 7.95858V10.6433H2.46915C2.00755 10.6433 1.63332 11.0175 1.63332 11.4791C1.63332 11.9407 2.00755 12.3149 2.46915 12.3149H3.72776V14.3087H1.47597C1.01437 14.3087 0.640137 14.6829 0.640137 15.1445C0.640137 15.6061 1.01437 15.9803 1.47597 15.9803H3.72776V24.3777C3.72776 25.3197 4.49425 26.0862 5.43634 26.0862H7.52024C7.83182 28.1567 9.6226 29.7493 11.7786 29.7493C13.9346 29.7493 15.7254 28.1567 16.0369 26.0862H23.7035C24.0151 28.1567 25.8059 29.7493 27.9619 29.7493C30.1179 29.7493 31.9087 28.1567 32.2202 26.0862H34.9315C35.8736 26.0862 36.6401 25.3197 36.6401 24.3777C36.6401 24.3237 36.6349 24.2699 36.6246 24.2168ZM33.2551 16.5329L24.6423 16.5328V8.07109C27.6935 8.89056 31.9226 12.9501 33.2551 16.5329ZM11.7787 28.0778C10.3258 28.0778 9.14371 26.8958 9.14371 25.4428C9.14371 23.9899 10.3258 22.8079 11.7787 22.8079C13.2316 22.8079 14.4136 23.9899 14.4136 25.4428C14.4135 26.8958 13.2316 28.0778 11.7787 28.0778ZM27.962 28.0778C26.5091 28.0777 25.327 26.8957 25.327 25.4428C25.327 23.9899 26.5091 22.8079 27.962 22.8079C29.4149 22.8079 30.5969 23.9899 30.5969 25.4428C30.5969 26.8958 29.4149 28.0778 27.962 28.0778ZM34.8902 24.4146C34.1932 24.4146 32.1435 24.4146 32.1435 24.4146C31.6812 22.535 29.9823 21.1363 27.962 21.1363C25.9417 21.1363 24.2427 22.535 23.7804 24.4146H15.9602C15.4979 22.535 13.799 21.1363 11.7787 21.1363C9.75837 21.1363 8.05939 22.535 7.59706 24.4146H5.43641C5.41606 24.4146 5.39949 24.398 5.39949 24.3777V15.9804H15.6427C16.1043 15.9804 16.4785 15.6062 16.4785 15.1446C16.4785 14.683 16.1043 14.3088 15.6427 14.3088H5.39942V12.315H10.1142C10.5758 12.315 10.95 11.9408 10.95 11.4792C10.95 11.0176 10.5758 10.6433 10.1142 10.6433H5.39942V7.95865C5.39942 7.9383 5.41599 7.92173 5.43634 7.92173H22.9706V17.3686C22.9706 17.8302 23.3448 18.2045 23.8065 18.2045L33.6878 18.2045C34.0442 19.8297 34.5331 22.4347 34.9492 24.3631C34.9576 24.4019 34.9334 24.4146 34.8902 24.4146Z" fill="#4960AC"/>
</g>
<defs>
<clipPath id="clip0">
<rect width="36" height="36" fill="white" transform="translate(0.640137)"/>
</clipPath>
</defs>
</svg>
